# xmcd
#
# Track frame offsets:
#	150
#	20587
#	45017
#
# Disc length: 883 seconds
#
# Revision: 1
# Processed by: cddbd v1.5.1PL0 Copyright (c) Steve Scherf et al.
# Submitted via: CDex 1.50Beta5
#
DISCID=15037103
DTITLE=The Castanets - ねないねないねない
DYEAR=1900
DGENRE=Rock
TTITLE0=ねないねないねない
TTITLE1=Dig 〜トンネルをほる〜
TTITLE2=ねないねないねない(嵐のノザッキーRemix)
EXTD=
EXTT0=
EXTT1=
EXTT2=
PLAYORDER=
